<svg width="24" height="24" viewBox="0 0 24 24" fill="none" xmlns="http://www.w3.org/2000/svg">
<ellipse cx="10.7149" cy="6.83813" rx="7.76373" ry="6.83813" fill="black"/>
<path d="M5.63117 12.9422C7.03184 13.8766 9.31294 14.4781 11.2739 14.3438C13.7551 14.174 14.8356 13.4094 15.1157 13.1546C15.6293 12.6874 15.596 12.3618 15.3959 12.1353L16.4079 11.7125C17.7205 11.3727 19.6761 11.3161 20.4899 11.3302C23.5197 12.1353 23.5883 14.8091 24 16.7648C24 21.2244 21.3187 22.2864 19.2493 22.628C17.8086 22.8658 11.3767 23.7483 8.324 23.9447C1.06894 24.4112 0.268557 21.8615 0 19.1452C-1.95406e-05 13.7492 3.85698 12.8856 5.63117 12.9422Z" fill="black"/>
<path d="M10.5645 5.52148L10.8846 7.17792C11.6183 6.78151 13.1417 6.15008 13.3658 6.79567C13.4725 7.03635 13.1897 7.64513 11.2048 8.1548" stroke="white" stroke-width="0.487532" stroke-linecap="round"/>
</svg>
