<svg width="19" height="19" viewBox="0 0 19 19" fill="none" xmlns="http://www.w3.org/2000/svg">
<circle cx="9.51514" cy="9.0144" r="9" fill="black"/>
<mask id="mask0_670_378" style="mask-type:alpha" maskUnits="userSpaceOnUse" x="0" y="0" width="19" height="19">
<circle cx="9.51514" cy="9.0144" r="9" fill="#FF4B8C"/>
</mask>
<g mask="url(#mask0_670_378)">
<ellipse cx="9.02501" cy="7.18809" rx="5.54552" ry="4.60221" fill="white"/>
<path d="M5.39482 11.2959C6.3953 11.9248 8.02466 12.3296 9.42533 12.2392C11.1976 12.1249 11.9694 11.6104 12.1695 11.4389C12.5364 11.1244 12.5125 10.9053 12.3696 10.7528L13.0925 10.4683C14.0301 10.2396 15.4269 10.2015 16.0082 10.211C18.1724 10.7528 18.2213 12.5524 18.5154 13.8686C18.5154 16.87 16.6002 17.5847 15.122 17.8147C14.093 17.9747 9.49875 18.5687 7.31827 18.7008C2.13609 19.0148 1.56438 17.2988 1.37256 15.4707C1.37254 11.8391 4.12754 11.2578 5.39482 11.2959Z" fill="white"/>
<path d="M8.91992 6.30141L9.1486 7.41623C9.67266 7.14943 10.7608 6.72447 10.9209 7.15896C10.9971 7.32094 10.7951 7.73067 9.37728 8.07369" stroke="black" stroke-width="0.410713" stroke-linecap="round"/>
</g>
</svg>
