<svg width="63" height="63" viewBox="0 0 63 63" fill="none" xmlns="http://www.w3.org/2000/svg">
<g id="Group 132">
<g id="Group 131">
<g id="Rectangle 62" filter="url(#filter0_ddii_304_1597)">
<rect x="13" y="13" width="37" height="37" rx="18.5" fill="white"/>
<rect x="13" y="13" width="37" height="37" rx="18.5" fill="url(#paint0_linear_304_1597)" fill-opacity="0.8"/>
</g>
<path id="Vector" d="M32.2276 36.5818C32.3228 36.6767 32.3983 36.7895 32.4499 36.9136C32.5015 37.0378 32.528 37.1709 32.528 37.3054C32.528 37.4398 32.5015 37.5729 32.4499 37.6971C32.3983 37.8213 32.3228 37.934 32.2276 38.0289L31.7219 38.5346C30.7638 39.4927 29.4642 40.031 28.1092 40.031C26.7541 40.031 25.4546 39.4927 24.4964 38.5346C23.5383 37.5764 23 36.2769 23 34.9218C23 33.5668 23.5383 32.2673 24.4964 31.3091L26.5497 29.2567C27.4703 28.3338 28.709 27.7979 30.0119 27.7586C31.3149 27.7194 32.5836 28.1798 33.5581 29.0456C33.6587 29.1351 33.7407 29.2434 33.7994 29.3645C33.8581 29.4857 33.8924 29.6172 33.9003 29.7516C33.9082 29.8859 33.8896 30.0206 33.8455 30.1477C33.8014 30.2749 33.7326 30.3921 33.6432 30.4928C33.5538 30.5934 33.4454 30.6754 33.3243 30.7341C33.2031 30.7928 33.0716 30.8271 32.9373 30.835C32.8029 30.8429 32.6683 30.8243 32.5411 30.7802C32.4139 30.7361 32.2967 30.6673 32.1961 30.5779C31.6117 30.0589 30.8511 29.7828 30.0699 29.8061C29.2887 29.8293 28.5459 30.1502 27.9934 30.703L25.9419 32.7528C25.3671 33.3276 25.0442 34.1072 25.0442 34.9201C25.0442 35.733 25.3671 36.5126 25.9419 37.0874C26.5167 37.6622 27.2963 37.9852 28.1092 37.9852C28.9221 37.9852 29.7017 37.6622 30.2765 37.0874L30.7821 36.5818C30.877 36.4868 30.9897 36.4115 31.1137 36.3601C31.2377 36.3087 31.3706 36.2822 31.5048 36.2822C31.6391 36.2822 31.772 36.3087 31.896 36.3601C32.02 36.4115 32.1327 36.4868 32.2276 36.5818ZM38.5337 24.494C37.5747 23.5373 36.2755 23 34.9209 23C33.5664 23 32.2671 23.5373 31.3082 24.494L30.8026 24.9996C30.6106 25.1915 30.5028 25.4518 30.5028 25.7232C30.5028 25.9946 30.6106 26.2548 30.8026 26.4467C30.9945 26.6386 31.2547 26.7464 31.5261 26.7464C31.7975 26.7464 32.0578 26.6386 32.2497 26.4467L32.7553 25.9411C33.3301 25.3663 34.1097 25.0434 34.9226 25.0434C35.7355 25.0434 36.5151 25.3663 37.0899 25.9411C37.6647 26.5159 37.9877 27.2955 37.9877 28.1084C37.9877 28.9213 37.6647 29.7009 37.0899 30.2757L35.0376 32.3289C34.4846 32.8815 33.7414 33.2019 32.96 33.2246C32.1786 33.2472 31.418 32.9703 30.834 32.4506C30.7334 32.3612 30.6162 32.2925 30.489 32.2484C30.3618 32.2042 30.2272 32.1856 30.0928 32.1935C29.9585 32.2014 29.827 32.2357 29.7058 32.2944C29.5847 32.3532 29.4763 32.4352 29.3869 32.5358C29.2975 32.6364 29.2287 32.7536 29.1846 32.8808C29.1405 33.008 29.1219 33.1426 29.1298 33.277C29.1377 33.4114 29.172 33.5429 29.2307 33.664C29.2894 33.7851 29.3714 33.8935 29.472 33.9829C30.4459 34.8485 31.7137 35.3093 33.016 35.2708C34.3184 35.2323 35.5568 34.6976 36.4779 33.7761L38.5311 31.7237C39.4889 30.765 40.0271 29.4654 40.0276 28.1102C40.0281 26.755 39.4908 25.455 38.5337 24.4957V24.494Z" fill="white"/>
</g>
</g>
<defs>
<filter id="filter0_ddii_304_1597" x="0.457627" y="0.457627" width="62.0847" height="62.0847" filterUnits="userSpaceOnUse" color-interpolation-filters="sRGB">
<feFlood flood-opacity="0" result="BackgroundImageFix"/>
<feColorMatrix in="SourceAlpha" type="matrix" values="0 0 0 0 0 0 0 0 0 0 0 0 0 0 0 0 0 0 127 0" result="hardAlpha"/>
<feOffset dx="3.13559" dy="3.13559"/>
<feGaussianBlur stdDeviation="4.70339"/>
<feComposite in2="hardAlpha" operator="out"/>
<feColorMatrix type="matrix" values="0 0 0 0 0.682353 0 0 0 0 0.682353 0 0 0 0 0.752941 0 0 0 0.4 0"/>
<feBlend mode="normal" in2="BackgroundImageFix" result="effect1_dropShadow_304_1597"/>
<feColorMatrix in="SourceAlpha" type="matrix" values="0 0 0 0 0 0 0 0 0 0 0 0 0 0 0 0 0 0 127 0" result="hardAlpha"/>
<feOffset dx="-3.13559" dy="-3.13559"/>
<feGaussianBlur stdDeviation="4.70339"/>
<feComposite in2="hardAlpha" operator="out"/>
<feColorMatrix type="matrix" values="0 0 0 0 1 0 0 0 0 1 0 0 0 0 1 0 0 0 0.25 0"/>
<feBlend mode="normal" in2="effect1_dropShadow_304_1597" result="effect2_dropShadow_304_1597"/>
<feBlend mode="normal" in="SourceGraphic" in2="effect2_dropShadow_304_1597" result="shape"/>
<feColorMatrix in="SourceAlpha" type="matrix" values="0 0 0 0 0 0 0 0 0 0 0 0 0 0 0 0 0 0 127 0" result="hardAlpha"/>
<feOffset dx="3.13559" dy="3.13559"/>
<feGaussianBlur stdDeviation="1.5678"/>
<feComposite in2="hardAlpha" operator="arithmetic" k2="-1" k3="1"/>
<feColorMatrix type="matrix" values="0 0 0 0 1 0 0 0 0 1 0 0 0 0 1 0 0 0 0.25 0"/>
<feBlend mode="normal" in2="shape" result="effect3_innerShadow_304_1597"/>
<feColorMatrix in="SourceAlpha" type="matrix" values="0 0 0 0 0 0 0 0 0 0 0 0 0 0 0 0 0 0 127 0" result="hardAlpha"/>
<feOffset dx="-3.13559" dy="-3.13559"/>
<feGaussianBlur stdDeviation="1.5678"/>
<feComposite in2="hardAlpha" operator="arithmetic" k2="-1" k3="1"/>
<feColorMatrix type="matrix" values="0 0 0 0 0.682353 0 0 0 0 0.682353 0 0 0 0 0.752941 0 0 0 0.25 0"/>
<feBlend mode="normal" in2="effect3_innerShadow_304_1597" result="effect4_innerShadow_304_1597"/>
</filter>
<linearGradient id="paint0_linear_304_1597" x1="21.6229" y1="14.5678" x2="41.0636" y2="46.3941" gradientUnits="userSpaceOnUse">
<stop stop-color="#6AE2A6" stop-opacity="0.8"/>
<stop offset="1" stop-color="#3DE08F"/>
</linearGradient>
</defs>
</svg>
