<svg width="13" height="13" viewBox="0 0 13 13" fill="none" xmlns="http://www.w3.org/2000/svg">
<path d="M12.8816 12.3062L8.94732 8.3334C9.6806 7.45196 10.1226 6.31796 10.1226 5.07973C10.1226 2.2743 7.85652 0 5.06128 0C2.26603 0 0 2.2743 0 5.07973C0 7.88516 2.26603 10.1595 5.06128 10.1595C6.33125 10.1595 7.4913 9.68887 8.38006 8.91309L12.3088 12.881C12.4669 13.0397 12.7235 13.0397 12.8816 12.881C13.0395 12.7223 13.0395 12.465 12.8816 12.3062ZM5.06128 9.35341C2.7096 9.35341 0.803123 7.43997 0.803123 5.07973C0.803123 2.71948 2.7096 0.806051 5.06128 0.806051C7.41295 0.806051 9.31943 2.71948 9.31943 5.07973C9.31943 7.43997 7.41295 9.35341 5.06128 9.35341Z" fill="black"/>
</svg>
